<svg width="18" height="14" viewBox="0 0 18 14" fill="none" xmlns="http://www.w3.org/2000/svg">
<path fill-rule="evenodd" clip-rule="evenodd" d="M14.8091 7.395C16.5141 5.978 17.6991 3.953 17.9921 1.624C18.0611 1.077 17.6731 0.577001 17.1241 0.508001C16.5841 0.434001 16.0761 0.827001 16.0081 1.375C15.5691 4.867 12.5561 7.5 9.00007 7.5C5.44407 7.5 2.43107 4.867 1.99207 1.375C1.92407 0.827001 1.41407 0.438001 0.875068 0.508001C0.327068 0.577001 -0.0609317 1.077 0.00806826 1.624C0.301068 3.953 1.48607 5.978 3.19107 7.395L0.879068 9.707C0.490068 10.096 0.490068 10.732 0.879068 11.121C1.26707 11.51 1.90407 11.51 2.29307 11.121L4.89607 8.518C5.85007 9 6.89707 9.318 8.00007 9.439V13C8.00007 13.55 8.45007 14 9.00007 14C9.55007 14 10.0001 13.55 10.0001 13V9.439C11.1021 9.318 12.1501 9 13.1031 8.518L15.7071 11.121C16.0961 11.51 16.7321 11.51 17.1211 11.121C17.5101 10.732 17.5101 10.096 17.1211 9.707L14.8091 7.395Z" fill="#0700FF"/>
</svg>
