<svg width="20" height="14" viewBox="0 0 20 14" fill="none" xmlns="http://www.w3.org/2000/svg">
<path fill-rule="evenodd" clip-rule="evenodd" d="M10 8.5C9.17305 8.5 8.50005 7.827 8.50005 7C8.50005 6.173 9.17305 5.5 10 5.5C10.827 5.5 11.5 6.173 11.5 7C11.5 7.827 10.827 8.5 10 8.5ZM10 3.5C8.07005 3.5 6.50005 5.07 6.50005 7C6.50005 8.93 8.07005 10.5 10 10.5C11.93 10.5 13.5 8.93 13.5 7C13.5 5.07 11.93 3.5 10 3.5ZM10.2197 11.9976C5.91375 12.0976 3.10475 8.4146 2.17275 6.9956C3.19875 5.3906 5.78275 2.1046 9.78075 2.0026C14.0697 1.8936 16.8947 5.5856 17.8267 7.0046C16.8018 8.6096 14.2167 11.8956 10.2197 11.9976ZM19.8678 6.5026C19.2297 5.3906 15.7057 -0.1834 9.72975 0.0035996C4.20175 0.1436 0.98675 5.0136 0.13275 6.5026C-0.04425 6.8106 -0.04425 7.1896 0.13275 7.4976C0.76175 8.5946 4.16175 13.9996 10.0247 13.9996C10.1067 13.9996 10.1888 13.9986 10.2708 13.9966C15.7977 13.8556 19.0138 8.9866 19.8678 7.4976C20.0438 7.1896 20.0438 6.8106 19.8678 6.5026Z" fill="#0700FF"/>
</svg>
